<svg width="206" height="30" viewBox="0 0 206 30" fill="none" xmlns="http://www.w3.org/2000/svg">
<g clip-path="url(#clip0_9_119)">
<path d="M21.4891 2.70811C20.1517 4.22817 21.0005 7.19497 23.3855 9.34015C25.7703 11.4822 38.5931 20.7986 39.9328 19.2807C41.268 17.7585 30.6105 5.97945 28.2255 3.8375C25.8439 1.69447 22.8275 1.18913 21.4891 2.70811Z" fill="#232728"/>
<path d="M18.5589 2.70811C19.8963 4.22817 19.0475 7.19497 16.6625 9.34015C14.2776 11.4822 1.45494 20.7986 0.11529 19.2807C-1.2201 17.7585 9.4374 5.97945 11.8223 3.8375C14.2052 1.69447 17.2215 1.18913 18.5589 2.70811Z" fill="#232728"/>
<path d="M33.3148 17.73C33.3148 34.7527 27.3664 29.0844 20.0246 29.0844C12.6851 29.0844 6.73438 34.7527 6.73438 17.73C6.73438 7.99641 12.6872 0.105469 20.0246 0.105469C27.3642 0.106547 33.3148 7.99748 33.3148 17.73Z" fill="#232728"/>
<path d="M37.2235 10.1565C37.2235 18.6461 29.5227 22.9153 20.0262 22.9153C10.5276 22.9153 2.82446 18.6472 2.82446 10.1565C2.82446 1.66261 10.5276 0.132996 20.0262 0.132996C29.5227 0.13313 37.2235 1.66261 37.2235 10.1565Z" fill="#F0CCBF"/>
<path d="M11.845 13.3505C12.6945 13.3505 13.3831 12.6547 13.3831 11.7965C13.3831 10.9382 12.6945 10.2424 11.845 10.2424C10.9955 10.2424 10.3069 10.9382 10.3069 11.7965C10.3069 12.6547 10.9955 13.3505 11.845 13.3505Z" fill="#4FAEC5"/>
<path d="M28.2039 13.3505C29.0535 13.3505 29.7421 12.6547 29.7421 11.7965C29.7421 10.9382 29.0535 10.2424 28.2039 10.2424C27.3546 10.2424 26.666 10.9382 26.666 11.7965C26.666 12.6547 27.3546 13.3505 28.2039 13.3505Z" fill="#4FAEC5"/>
<path d="M23.8147 15.814C23.8147 16.643 22.1158 17.3171 20.023 17.3171C17.9302 17.3171 16.2313 16.643 16.2313 15.814C16.2313 14.985 17.9302 15.4807 20.023 15.4807C22.1158 15.4807 23.8147 14.9839 23.8147 15.814Z" fill="#C14040"/>
<path d="M13.3831 11.7964C13.3831 12.6573 12.6938 13.3515 11.8438 13.3515C10.9938 13.3515 10.3069 12.6573 10.3069 11.7964" fill="#4FAEC5"/>
<path d="M26.666 11.7964C26.666 12.6573 27.3529 13.3515 28.2052 13.3515C29.055 13.3515 29.7421 12.6573 29.7421 11.7964" fill="#4FAEC5"/>
<path d="M37.2235 16.7446C37.2235 8.30579 29.5224 6.69422 20.0259 6.69422C10.5274 6.69422 2.82419 8.18182 2.82434 16.7446C2.82419 8.25074 10.5274 0 20.0259 0C29.5224 0 37.2235 8.25074 37.2235 16.7446Z" fill="#444844"/>
<path d="M21.4891 2.70811C20.1517 4.22817 21.0005 7.19497 23.3855 9.34015C25.7703 11.4822 38.5931 20.7986 39.9328 19.2807C41.268 17.7585 30.6105 5.97945 28.2255 3.8375C25.8439 1.69447 22.8275 1.18913 21.4891 2.70811Z" fill="#232728"/>
<path d="M18.5589 2.70811C19.8963 4.22817 19.0475 7.19497 16.6625 9.34015C14.2776 11.4822 1.45494 20.7986 0.11529 19.2807C-1.2201 17.7585 9.4374 5.97945 11.8223 3.8375C14.2052 1.69447 17.2215 1.18913 18.5589 2.70811Z" fill="#232728"/>
<path d="M33.3148 17.73C33.3148 34.7527 27.3664 29.0844 20.0246 29.0844C12.6851 29.0844 6.73438 34.7527 6.73438 17.73C6.73438 7.99641 12.6872 0.105469 20.0246 0.105469C27.3642 0.106547 33.3148 7.99748 33.3148 17.73Z" fill="#232728"/>
<path d="M37.2235 10.1565C37.2235 18.6461 29.5227 22.9153 20.0262 22.9153C10.5276 22.9153 2.82446 18.6472 2.82446 10.1565C2.82446 1.66261 10.5276 0.132996 20.0262 0.132996C29.5227 0.13313 37.2235 1.66261 37.2235 10.1565Z" fill="#F0CCBF"/>
<path d="M11.845 13.3505C12.6945 13.3505 13.3831 12.6547 13.3831 11.7965C13.3831 10.9382 12.6945 10.2424 11.845 10.2424C10.9955 10.2424 10.3069 10.9382 10.3069 11.7965C10.3069 12.6547 10.9955 13.3505 11.845 13.3505Z" fill="#4FAEC5"/>
<path d="M28.2039 13.3505C29.0535 13.3505 29.7421 12.6547 29.7421 11.7965C29.7421 10.9382 29.0535 10.2424 28.2039 10.2424C27.3546 10.2424 26.666 10.9382 26.666 11.7965C26.666 12.6547 27.3546 13.3505 28.2039 13.3505Z" fill="#4FAEC5"/>
<path d="M23.8147 15.814C23.8147 16.643 22.1158 17.3171 20.023 17.3171C17.9302 17.3171 16.2313 16.643 16.2313 15.814C16.2313 14.985 17.9302 15.4807 20.023 15.4807C22.1158 15.4807 23.8147 14.9839 23.8147 15.814Z" fill="#C14040"/>
<path d="M13.3831 11.7964C13.3831 12.6573 12.6938 13.3515 11.8438 13.3515C10.9938 13.3515 10.3069 12.6573 10.3069 11.7964" fill="#4FAEC5"/>
<path d="M26.666 11.7964C26.666 12.6573 27.3529 13.3515 28.2052 13.3515C29.055 13.3515 29.7421 12.6573 29.7421 11.7964" fill="#4FAEC5"/>
<path d="M37.2235 16.7446C37.2235 8.30579 29.5224 6.69422 20.0259 6.69422C10.5274 6.69422 2.82419 8.18182 2.82434 16.7446C2.82419 8.25074 10.5274 0 20.0259 0C29.5224 0 37.2235 8.25074 37.2235 16.7446Z" fill="#444844"/>
</g>
<path d="M60.3259 6.424H53.3819V4.6H69.3819V6.424H62.4379V27H60.3259V6.424ZM72.9596 2.616H74.9756V13.304C75.509 12.4933 76.2663 11.8 77.2476 11.224C78.229 10.6267 79.3916 10.328 80.7356 10.328C81.973 10.328 82.9863 10.5413 83.7756 10.968C84.565 11.3733 85.1836 11.896 85.6316 12.536C86.0796 13.1547 86.3783 13.8373 86.5276 14.584C86.6983 15.3307 86.7836 16.0347 86.7836 16.696V27H84.7676V16.856C84.7676 16.3013 84.7143 15.736 84.6076 15.16C84.501 14.584 84.2876 14.072 83.9676 13.624C83.669 13.1547 83.2423 12.7707 82.6876 12.472C82.1543 12.1733 81.461 12.024 80.6076 12.024C79.797 12.024 79.0503 12.1733 78.3676 12.472C77.685 12.7493 77.0876 13.144 76.5756 13.656C76.085 14.1467 75.6903 14.7227 75.3916 15.384C75.1143 16.024 74.9756 16.7067 74.9756 17.432V27H72.9596V2.616ZM93.4189 19.384C93.5469 21.304 94.1442 22.8187 95.2109 23.928C96.2989 25.016 97.8882 25.56 99.9789 25.56C100.704 25.56 101.483 25.496 102.315 25.368C103.168 25.2187 104.043 24.9307 104.939 24.504V26.36C104.022 26.7227 103.147 26.9573 102.315 27.064C101.483 27.192 100.683 27.256 99.9149 27.256C97.2695 27.256 95.1895 26.5093 93.6749 25.016C92.1602 23.5013 91.4029 21.336 91.4029 18.52C91.4029 17.24 91.5949 16.0987 91.9789 15.096C92.3629 14.072 92.8855 13.208 93.5469 12.504C94.2295 11.8 95.0402 11.2667 95.9789 10.904C96.9175 10.52 97.9522 10.328 99.0829 10.328C100.171 10.328 101.099 10.4773 101.867 10.776C102.656 11.0533 103.307 11.4267 103.819 11.896C104.352 12.344 104.768 12.8667 105.067 13.464C105.366 14.0613 105.59 14.6693 105.739 15.288C105.91 15.9067 106.016 16.5253 106.059 17.144C106.102 17.7413 106.123 18.2747 106.123 18.744V19.384H93.4189ZM99.0829 12.024C97.4829 12.024 96.1815 12.5253 95.1789 13.528C94.1762 14.5307 93.6002 15.9173 93.4509 17.688H104.011C104.011 17.368 103.979 16.888 103.915 16.248C103.851 15.608 103.648 14.9787 103.307 14.36C102.987 13.7413 102.496 13.1973 101.835 12.728C101.174 12.2587 100.256 12.024 99.0829 12.024ZM127.328 27.256C125.899 27.256 124.565 27.0107 123.328 26.52C122.091 26.008 121.013 25.272 120.096 24.312C119.2 23.352 118.485 22.168 117.952 20.76C117.44 19.3307 117.184 17.688 117.184 15.832C117.184 14.3387 117.387 12.8987 117.792 11.512C118.219 10.1253 118.848 8.89867 119.68 7.832C120.533 6.76533 121.589 5.92267 122.848 5.304C124.128 4.664 125.621 4.344 127.328 4.344C129.035 4.344 130.517 4.664 131.776 5.304C133.056 5.92267 134.112 6.76533 134.944 7.832C135.797 8.89867 136.427 10.1253 136.832 11.512C137.259 12.8987 137.472 14.3387 137.472 15.832C137.472 17.688 137.205 19.3307 136.672 20.76C136.16 22.168 135.445 23.352 134.528 24.312C133.611 25.272 132.533 26.008 131.296 26.52C130.08 27.0107 128.757 27.256 127.328 27.256ZM127.328 25.432C128.309 25.432 129.269 25.2507 130.208 24.888C131.147 24.504 131.979 23.928 132.704 23.16C133.451 22.3707 134.048 21.3787 134.496 20.184C134.965 18.968 135.2 17.5173 135.2 15.832C135.2 14.1467 134.965 12.696 134.496 11.48C134.048 10.264 133.451 9.26133 132.704 8.472C131.979 7.68266 131.147 7.10667 130.208 6.744C129.269 6.36 128.309 6.168 127.328 6.168C126.347 6.168 125.387 6.36 124.448 6.744C123.509 7.10667 122.667 7.68266 121.92 8.472C121.195 9.26133 120.597 10.264 120.128 11.48C119.68 12.696 119.456 14.1467 119.456 15.832C119.456 17.5173 119.68 18.968 120.128 20.184C120.597 21.3787 121.195 22.3707 121.92 23.16C122.667 23.928 123.509 24.504 124.448 24.888C125.387 25.2507 126.347 25.432 127.328 25.432ZM140.032 10.584H143.488V7.224C143.488 5.64533 143.957 4.472 144.896 3.704C145.835 2.91467 147.072 2.52 148.608 2.52C149.291 2.52 149.92 2.584 150.496 2.712V4.376C149.899 4.26933 149.365 4.216 148.896 4.216C148.427 4.216 147.979 4.26933 147.552 4.376C147.147 4.48267 146.795 4.65333 146.496 4.888C146.197 5.12267 145.952 5.432 145.76 5.816C145.589 6.2 145.504 6.68 145.504 7.256V10.584H150.272V12.28H145.504V27H143.488V12.28H140.032V10.584ZM151.876 10.584H155.332V7.224C155.332 5.64533 155.801 4.472 156.74 3.704C157.679 2.91467 158.916 2.52 160.452 2.52C161.135 2.52 161.764 2.584 162.34 2.712V4.376C161.743 4.26933 161.209 4.216 160.74 4.216C160.271 4.216 159.823 4.26933 159.396 4.376C158.991 4.48267 158.639 4.65333 158.34 4.888C158.041 5.12267 157.796 5.432 157.604 5.816C157.433 6.2 157.348 6.68 157.348 7.256V10.584H162.116V12.28H157.348V27H155.332V12.28H151.876V10.584ZM166.18 10.584H168.196V27H166.18V10.584ZM166.084 3.96H168.292V6.52H166.084V3.96ZM181.845 27.256C180.501 27.256 179.317 27.0533 178.293 26.648C177.269 26.2213 176.416 25.6347 175.733 24.888C175.05 24.1413 174.528 23.2347 174.165 22.168C173.824 21.1013 173.653 19.9067 173.653 18.584C173.653 17.3467 173.834 16.2267 174.197 15.224C174.56 14.2 175.082 13.3253 175.765 12.6C176.469 11.8747 177.322 11.32 178.325 10.936C179.328 10.5307 180.48 10.328 181.781 10.328C182.037 10.328 182.453 10.3493 183.029 10.392C183.626 10.4347 184.352 10.5733 185.205 10.808V12.6C184.906 12.536 184.448 12.4293 183.829 12.28C183.21 12.1093 182.474 12.024 181.621 12.024C179.744 12.024 178.293 12.6213 177.269 13.816C176.266 14.9893 175.765 16.6 175.765 18.648C175.765 20.8453 176.288 22.552 177.333 23.768C178.4 24.9627 179.893 25.56 181.813 25.56C182.432 25.56 183.029 25.496 183.605 25.368C184.181 25.24 184.757 25.0587 185.333 24.824V26.616C184.672 26.872 184.064 27.0427 183.509 27.128C182.976 27.2133 182.421 27.256 181.845 27.256ZM191.044 19.384C191.172 21.304 191.769 22.8187 192.836 23.928C193.924 25.016 195.513 25.56 197.604 25.56C198.329 25.56 199.108 25.496 199.94 25.368C200.793 25.2187 201.668 24.9307 202.564 24.504V26.36C201.647 26.7227 200.772 26.9573 199.94 27.064C199.108 27.192 198.308 27.256 197.54 27.256C194.895 27.256 192.815 26.5093 191.3 25.016C189.785 23.5013 189.028 21.336 189.028 18.52C189.028 17.24 189.22 16.0987 189.604 15.096C189.988 14.072 190.511 13.208 191.172 12.504C191.855 11.8 192.665 11.2667 193.604 10.904C194.543 10.52 195.577 10.328 196.708 10.328C197.796 10.328 198.724 10.4773 199.492 10.776C200.281 11.0533 200.932 11.4267 201.444 11.896C201.977 12.344 202.393 12.8667 202.692 13.464C202.991 14.0613 203.215 14.6693 203.364 15.288C203.535 15.9067 203.641 16.5253 203.684 17.144C203.727 17.7413 203.748 18.2747 203.748 18.744V19.384H191.044ZM196.708 12.024C195.108 12.024 193.807 12.5253 192.804 13.528C191.801 14.5307 191.225 15.9173 191.076 17.688H201.636C201.636 17.368 201.604 16.888 201.54 16.248C201.476 15.608 201.273 14.9787 200.932 14.36C200.612 13.7413 200.121 13.1973 199.46 12.728C198.799 12.2587 197.881 12.024 196.708 12.024Z" fill="black"/>
<defs>
<clipPath id="clip0_9_119">
<rect width="40" height="30" fill="white"/>
</clipPath>
</defs>
</svg>
