<svg width="206" height="40" viewBox="0 0 206 40" fill="none" xmlns="http://www.w3.org/2000/svg">
<path d="M4.99999 0H0V5H4.99999V0Z" fill="#BD8B72"/>
<path d="M9.99999 0H5V5H9.99999V0Z" fill="#B57B67"/>
<path d="M15 0H10V5H15V0Z" fill="#BD8B72"/>
<path d="M20 0H15V5H20V0Z" fill="#B57B67"/>
<path d="M25 0H20V5H25V0Z" fill="#B57B67"/>
<path d="M30 0H25V5H30V0Z" fill="#B57B67"/>
<path d="M35 0H30V5H35V0Z" fill="#BD8B72"/>
<path d="M40 0H35V5H40V0Z" fill="#B57B67"/>
<path d="M4.99999 5H0V10H4.99999V5Z" fill="#BD8B72"/>
<path d="M9.99999 5H5V10H9.99999V5Z" fill="#B57B67"/>
<path d="M15 5H10V10H15V5Z" fill="#B57B67"/>
<path d="M20 5H15V10H20V5Z" fill="#B57B67"/>
<path d="M25 5H20V10H25V5Z" fill="#B57B67"/>
<path d="M30 5H25V10H30V5Z" fill="#B57B67"/>
<path d="M35 5H30V10H35V5Z" fill="#BD8B72"/>
<path d="M40 5H35V10H40V5Z" fill="#B57B67"/>
<path d="M4.99999 10H0V15H4.99999V10Z" fill="#BD8B72"/>
<path d="M9.99999 10H5V15H9.99999V10Z" fill="#B57B67"/>
<path d="M15 10H10V15H15V10Z" fill="#B57B67"/>
<path d="M20 10H15V15H20V10Z" fill="#B57B67"/>
<path d="M25 10H20V15H25V10Z" fill="#B57B67"/>
<path d="M30 10H25V15H30V10Z" fill="#B57B67"/>
<path d="M35 9.7677H30V14.7677H35V9.7677Z" fill="#B57B67"/>
<path d="M40 10H35V15H40V10Z" fill="#B57B67"/>
<path d="M4.99999 15H0V20H4.99999V15Z" fill="#B57B67"/>
<path d="M9.99999 15H5V20H9.99999V15Z" fill="#332411"/>
<path d="M15 15H10V20H15V15Z" fill="#332411"/>
<path d="M20 15H15V20H20V15Z" fill="#332411"/>
<path d="M25 15H20V20H25V15Z" fill="#332411"/>
<path d="M30 15H25V20H30V15Z" fill="#332411"/>
<path d="M35 15H30V20H35V15Z" fill="#332411"/>
<path d="M40 15H35V20H40V15Z" fill="#B57B67"/>
<path d="M4.99999 20H0V25H4.99999V20Z" fill="#BD8B72"/>
<path d="M9.99999 20H5V25H9.99999V20Z" fill="white"/>
<path d="M15 20H10V25H15V20Z" fill="#009611"/>
<path d="M20 20H15V25H20V20Z" fill="#B57B67"/>
<path d="M25 20H20V25H25V20Z" fill="#B57B67"/>
<path d="M30 20H25V25H30V20Z" fill="#009611"/>
<path d="M35 20H30V25H35V20Z" fill="white"/>
<path d="M40 20H35V25H40V20Z" fill="#BD8B72"/>
<path d="M4.99999 25H0V30H4.99999V25Z" fill="#905E43"/>
<path d="M9.99999 25H5V30H9.99999V25Z" fill="#B57B67"/>
<path d="M15 25H10V30H15V25Z" fill="#BD8B72"/>
<path d="M20 25H15V30H20V25Z" fill="#905E43"/>
<path d="M25 25H20V30H25V25Z" fill="#905E43"/>
<path d="M30 25H25V30H30V25Z" fill="#BD8B72"/>
<path d="M35 25H30V30H35V25Z" fill="#B57B67"/>
<path d="M40 25H35V30H40V25Z" fill="#905E43"/>
<path d="M4.99999 30H0V35H4.99999V30Z" fill="#905E43"/>
<path d="M9.99999 30H5V35H9.99999V30Z" fill="#B57B67"/>
<path d="M15 30H10V35H15V30Z" fill="#774235"/>
<path d="M20 30H15V35H20V30Z" fill="#905E43"/>
<path d="M25 30H20V35H25V30Z" fill="#905E43"/>
<path d="M30 30H25V35H30V30Z" fill="#774235"/>
<path d="M35 30H30V35H35V30Z" fill="#B57B67"/>
<path d="M40 30H35V35H40V30Z" fill="#905E43"/>
<path d="M4.99999 35H0V40H4.99999V35Z" fill="#905E43"/>
<path d="M9.99999 35H5V40H9.99999V35Z" fill="#B57B67"/>
<path d="M15 35H10V40H15V35Z" fill="#B57B67"/>
<path d="M20 35H15V40H20V35Z" fill="#905E43"/>
<path d="M25 35H20V40H25V35Z" fill="#905E43"/>
<path d="M30 35H25V40H30V35Z" fill="#B57B67"/>
<path d="M35 35H30V40H35V35Z" fill="#B57B67"/>
<path d="M40 35H35V40H40V35Z" fill="#905E43"/>
<path d="M60.3259 11.424H53.3819V9.6H69.3819V11.424H62.4379V32H60.3259V11.424ZM72.9596 7.616H74.9756V18.304C75.509 17.4933 76.2663 16.8 77.2476 16.224C78.229 15.6267 79.3916 15.328 80.7356 15.328C81.973 15.328 82.9863 15.5413 83.7756 15.968C84.565 16.3733 85.1836 16.896 85.6316 17.536C86.0796 18.1547 86.3783 18.8373 86.5276 19.584C86.6983 20.3307 86.7836 21.0347 86.7836 21.696V32H84.7676V21.856C84.7676 21.3013 84.7143 20.736 84.6076 20.16C84.501 19.584 84.2876 19.072 83.9676 18.624C83.669 18.1547 83.2423 17.7707 82.6876 17.472C82.1543 17.1733 81.461 17.024 80.6076 17.024C79.797 17.024 79.0503 17.1733 78.3676 17.472C77.685 17.7493 77.0876 18.144 76.5756 18.656C76.085 19.1467 75.6903 19.7227 75.3916 20.384C75.1143 21.024 74.9756 21.7067 74.9756 22.432V32H72.9596V7.616ZM93.4189 24.384C93.5469 26.304 94.1442 27.8187 95.2109 28.928C96.2989 30.016 97.8882 30.56 99.9789 30.56C100.704 30.56 101.483 30.496 102.315 30.368C103.168 30.2187 104.043 29.9307 104.939 29.504V31.36C104.022 31.7227 103.147 31.9573 102.315 32.064C101.483 32.192 100.683 32.256 99.9149 32.256C97.2695 32.256 95.1895 31.5093 93.6749 30.016C92.1602 28.5013 91.4029 26.336 91.4029 23.52C91.4029 22.24 91.5949 21.0987 91.9789 20.096C92.3629 19.072 92.8855 18.208 93.5469 17.504C94.2295 16.8 95.0402 16.2667 95.9789 15.904C96.9175 15.52 97.9522 15.328 99.0829 15.328C100.171 15.328 101.099 15.4773 101.867 15.776C102.656 16.0533 103.307 16.4267 103.819 16.896C104.352 17.344 104.768 17.8667 105.067 18.464C105.366 19.0613 105.59 19.6693 105.739 20.288C105.91 20.9067 106.016 21.5253 106.059 22.144C106.102 22.7413 106.123 23.2747 106.123 23.744V24.384H93.4189ZM99.0829 17.024C97.4829 17.024 96.1815 17.5253 95.1789 18.528C94.1762 19.5307 93.6002 20.9173 93.4509 22.688H104.011C104.011 22.368 103.979 21.888 103.915 21.248C103.851 20.608 103.648 19.9787 103.307 19.36C102.987 18.7413 102.496 18.1973 101.835 17.728C101.174 17.2587 100.256 17.024 99.0829 17.024ZM127.328 32.256C125.899 32.256 124.565 32.0107 123.328 31.52C122.091 31.008 121.013 30.272 120.096 29.312C119.2 28.352 118.485 27.168 117.952 25.76C117.44 24.3307 117.184 22.688 117.184 20.832C117.184 19.3387 117.387 17.8987 117.792 16.512C118.219 15.1253 118.848 13.8987 119.68 12.832C120.533 11.7653 121.589 10.9227 122.848 10.304C124.128 9.664 125.621 9.344 127.328 9.344C129.035 9.344 130.517 9.664 131.776 10.304C133.056 10.9227 134.112 11.7653 134.944 12.832C135.797 13.8987 136.427 15.1253 136.832 16.512C137.259 17.8987 137.472 19.3387 137.472 20.832C137.472 22.688 137.205 24.3307 136.672 25.76C136.16 27.168 135.445 28.352 134.528 29.312C133.611 30.272 132.533 31.008 131.296 31.52C130.08 32.0107 128.757 32.256 127.328 32.256ZM127.328 30.432C128.309 30.432 129.269 30.2507 130.208 29.888C131.147 29.504 131.979 28.928 132.704 28.16C133.451 27.3707 134.048 26.3787 134.496 25.184C134.965 23.968 135.2 22.5173 135.2 20.832C135.2 19.1467 134.965 17.696 134.496 16.48C134.048 15.264 133.451 14.2613 132.704 13.472C131.979 12.6827 131.147 12.1067 130.208 11.744C129.269 11.36 128.309 11.168 127.328 11.168C126.347 11.168 125.387 11.36 124.448 11.744C123.509 12.1067 122.667 12.6827 121.92 13.472C121.195 14.2613 120.597 15.264 120.128 16.48C119.68 17.696 119.456 19.1467 119.456 20.832C119.456 22.5173 119.68 23.968 120.128 25.184C120.597 26.3787 121.195 27.3707 121.92 28.16C122.667 28.928 123.509 29.504 124.448 29.888C125.387 30.2507 126.347 30.432 127.328 30.432ZM140.032 15.584H143.488V12.224C143.488 10.6453 143.957 9.472 144.896 8.704C145.835 7.91467 147.072 7.52 148.608 7.52C149.291 7.52 149.92 7.584 150.496 7.712V9.376C149.899 9.26933 149.365 9.216 148.896 9.216C148.427 9.216 147.979 9.26933 147.552 9.376C147.147 9.48267 146.795 9.65333 146.496 9.888C146.197 10.1227 145.952 10.432 145.76 10.816C145.589 11.2 145.504 11.68 145.504 12.256V15.584H150.272V17.28H145.504V32H143.488V17.28H140.032V15.584ZM151.876 15.584H155.332V12.224C155.332 10.6453 155.801 9.472 156.74 8.704C157.679 7.91467 158.916 7.52 160.452 7.52C161.135 7.52 161.764 7.584 162.34 7.712V9.376C161.743 9.26933 161.209 9.216 160.74 9.216C160.271 9.216 159.823 9.26933 159.396 9.376C158.991 9.48267 158.639 9.65333 158.34 9.888C158.041 10.1227 157.796 10.432 157.604 10.816C157.433 11.2 157.348 11.68 157.348 12.256V15.584H162.116V17.28H157.348V32H155.332V17.28H151.876V15.584ZM166.18 15.584H168.196V32H166.18V15.584ZM166.084 8.96H168.292V11.52H166.084V8.96ZM181.845 32.256C180.501 32.256 179.317 32.0533 178.293 31.648C177.269 31.2213 176.416 30.6347 175.733 29.888C175.05 29.1413 174.528 28.2347 174.165 27.168C173.824 26.1013 173.653 24.9067 173.653 23.584C173.653 22.3467 173.834 21.2267 174.197 20.224C174.56 19.2 175.082 18.3253 175.765 17.6C176.469 16.8747 177.322 16.32 178.325 15.936C179.328 15.5307 180.48 15.328 181.781 15.328C182.037 15.328 182.453 15.3493 183.029 15.392C183.626 15.4347 184.352 15.5733 185.205 15.808V17.6C184.906 17.536 184.448 17.4293 183.829 17.28C183.21 17.1093 182.474 17.024 181.621 17.024C179.744 17.024 178.293 17.6213 177.269 18.816C176.266 19.9893 175.765 21.6 175.765 23.648C175.765 25.8453 176.288 27.552 177.333 28.768C178.4 29.9627 179.893 30.56 181.813 30.56C182.432 30.56 183.029 30.496 183.605 30.368C184.181 30.24 184.757 30.0587 185.333 29.824V31.616C184.672 31.872 184.064 32.0427 183.509 32.128C182.976 32.2133 182.421 32.256 181.845 32.256ZM191.044 24.384C191.172 26.304 191.769 27.8187 192.836 28.928C193.924 30.016 195.513 30.56 197.604 30.56C198.329 30.56 199.108 30.496 199.94 30.368C200.793 30.2187 201.668 29.9307 202.564 29.504V31.36C201.647 31.7227 200.772 31.9573 199.94 32.064C199.108 32.192 198.308 32.256 197.54 32.256C194.895 32.256 192.815 31.5093 191.3 30.016C189.785 28.5013 189.028 26.336 189.028 23.52C189.028 22.24 189.22 21.0987 189.604 20.096C189.988 19.072 190.511 18.208 191.172 17.504C191.855 16.8 192.665 16.2667 193.604 15.904C194.543 15.52 195.577 15.328 196.708 15.328C197.796 15.328 198.724 15.4773 199.492 15.776C200.281 16.0533 200.932 16.4267 201.444 16.896C201.977 17.344 202.393 17.8667 202.692 18.464C202.991 19.0613 203.215 19.6693 203.364 20.288C203.535 20.9067 203.641 21.5253 203.684 22.144C203.727 22.7413 203.748 23.2747 203.748 23.744V24.384H191.044ZM196.708 17.024C195.108 17.024 193.807 17.5253 192.804 18.528C191.801 19.5307 191.225 20.9173 191.076 22.688H201.636C201.636 22.368 201.604 21.888 201.54 21.248C201.476 20.608 201.273 19.9787 200.932 19.36C200.612 18.7413 200.121 18.1973 199.46 17.728C198.799 17.2587 197.881 17.024 196.708 17.024Z" fill="black"/>
</svg>
